<?xml version="1.0" encoding="utf-8"?>
<!-- Generator: Adobe Illustrator 25.2.2, SVG Export Plug-In . SVG Version: 6.00 Build 0)  -->
<svg version="1.1" id="Ebene_1" xmlns="http://www.w3.org/2000/svg" xmlns:xlink="http://www.w3.org/1999/xlink" x="0px" y="0px"
	 viewBox="0 0 595.3 841.9" style="enable-background:new 0 0 595.3 841.9;" xml:space="preserve">
<style type="text/css">
	.st0{fill:#95C11F;}
</style>
<path class="st0" d="M54.3,467c0.1-0.1,0.1-0.1,0.2-0.1c2-0.8,4-1.6,6-2.4c0.1,0,0.2,0,0.3,0c0.2,0.1,0.5,0.1,0.7,0
	c0.1-0.1,0.2-0.2,0.2-0.3c0-0.1-0.1-0.3-0.2-0.3c-0.3-0.2-0.7-0.1-1,0.2c0,0.1-0.1,0.1-0.2,0.1c-2.1,0.9-4.3,1.8-6.4,2.6
	c-0.1,0-0.2,0.1-0.2,0.2c0,0.7,0,1.4,0,2.1c0.1,0.1,0.2,0.1,0.2,0.1c0.5,0.4,0.6,1.3,0.1,1.8c-0.2,0.2-0.2,0.2,0,0.4
	c0.2,0.2,0.3,0.5,0.4,0.8c0.2,0.8,0.3,1.6,0.3,2.4c0,0.1,0,0.2-0.2,0.3c-0.6,0.3-1.2,0.3-1.9,0c-0.1-0.1-0.2-0.1-0.2-0.3
	c0-0.8,0-1.6,0.2-2.3c0.1-0.4,0.2-0.7,0.5-0.9c0.1-0.1,0.1-0.2,0-0.3c-0.3-0.2-0.4-0.6-0.4-1.1c0-0.4,0.2-0.7,0.5-0.9
	c0,0,0.1-0.1,0.1-0.2c0-0.7,0-1.4,0-2.1c0-0.2-0.1-0.2-0.2-0.2c-0.5-0.2-1-0.4-1.5-0.6c-0.1,0-0.2,0-0.2-0.2c0-0.2,0-0.3,0.2-0.3
	c0.5-0.2,1-0.4,1.4-0.6c2.5-1,4.9-2,7.4-3c0.3-0.1,0.6-0.1,0.9,0c2.9,1.2,5.8,2.4,8.7,3.6c0.1,0,0.2,0.1,0.2,0.3
	c0.1,0.2,0,0.3-0.2,0.4c-2.1,0.8-4.1,1.7-6.2,2.5c-0.9,0.4-1.7,0.7-2.6,1.1c-0.2,0.1-0.4,0.1-0.6,0c-2.1-0.8-4.1-1.7-6.2-2.5
	C54.5,467.1,54.4,467.1,54.3,467z"/>
<path class="st0" d="M55.1,471.3c0.1-1,0.3-2,0.6-3c0.1-0.2,0.2-0.2,0.3-0.1c1.6,0.6,3.1,1.3,4.7,1.9c0.2,0.1,0.4,0.1,0.6,0
	c1.6-0.6,3.1-1.3,4.7-1.9c0.2-0.1,0.3,0,0.3,0.2c0.3,0.9,0.5,1.8,0.6,2.8c0,0.3,0,0.4-0.2,0.4c-1,0.1-2,0.4-2.9,0.9
	c-0.9,0.5-1.8,1.2-2.6,2c-0.1,0.1-0.2,0.1-0.3,0c-1.4-1.5-3.1-2.5-4.9-2.8c-0.3,0-0.5-0.1-0.8-0.1C55.1,471.6,55,471.5,55.1,471.3z"
	/>
</svg>
