<?xml version="1.0" encoding="utf-8"?>
<!-- Generator: Adobe Illustrator 25.2.2, SVG Export Plug-In . SVG Version: 6.00 Build 0)  -->
<svg version="1.1" id="Ebene_1" xmlns="http://www.w3.org/2000/svg" xmlns:xlink="http://www.w3.org/1999/xlink" x="0px" y="0px"
	 viewBox="0 0 595.3 841.9" style="enable-background:new 0 0 595.3 841.9;" xml:space="preserve">
<style type="text/css">
	.st0{fill:#F39200;}
</style>
<g>
	<path class="st0" d="M1557.4-178.2c-2.1-0.8-4.1-1.3-5.8-2.2c-23.9-11.9-47.8-23.8-71.7-35.8c-6.2-3.1-8.4-8.2-5.8-13.3
		c2.6-5.1,8-6.4,14.1-3.4c21.7,10.8,43.4,21.6,65,32.6c3,1.5,5.2,1.6,8.3,0.1c21.3-10.8,42.7-21.5,64.1-32.1c2.2-1.1,4.7-2.2,7-2.2
		c4.1,0,7.1,2.3,8.6,6.4c1.4,4,0.1,7.2-2.8,9.9c-1.2,1.1-2.8,1.8-4.2,2.6c-23.1,11.6-46.3,23.2-69.5,34.7
		C1562.4-179.9,1559.9-179.1,1557.4-178.2z"/>
	<path class="st0" d="M1557.4-214c-2.1-0.8-4.1-1.3-5.8-2.2c-23.9-11.9-47.8-23.8-71.7-35.8c-6.2-3.1-8.4-8.2-5.8-13.3
		c2.6-5.1,8-6.4,14.1-3.4c21.7,10.8,43.4,21.6,65,32.6c3,1.5,5.2,1.6,8.3,0.1c21.3-10.8,42.7-21.5,64.1-32.1c2.2-1.1,4.7-2.2,7-2.2
		c4.1,0,7.1,2.3,8.6,6.4c1.4,4,0.1,7.2-2.8,9.9c-1.2,1.1-2.8,1.8-4.2,2.6c-23.1,11.6-46.3,23.2-69.5,34.7
		C1562.4-215.7,1559.9-215,1557.4-214z"/>
	<path class="st0" d="M1557.4-255.4c-2.1-0.8-4.1-1.3-5.8-2.2c-23.9-11.9-47.8-23.8-71.7-35.8c-6.2-3.1-8.4-8.2-5.8-13.3
		c2.6-5.1,8-6.4,14.1-3.4c21.7,10.8,43.4,21.6,65,32.6c3,1.5,5.2,1.6,8.3,0.1c21.3-10.8,42.7-21.5,64.1-32.1c2.2-1.1,4.7-2.2,7-2.2
		c4.1,0,7.1,2.3,8.6,6.4c1.4,4,0.1,7.2-2.8,9.9c-1.2,1.1-2.8,1.8-4.2,2.6c-23.1,11.6-46.3,23.2-69.5,34.7
		C1562.4-257.1,1559.9-256.4,1557.4-255.4z"/>
	<path class="st0" d="M1557.4-355.4c-2.1,0.8-4.1,1.3-5.8,2.2c-23.9,11.9-47.8,23.8-71.7,35.8c-6.2,3.1-8.4,8.2-5.8,13.3
		c2.6,5.1,8,6.4,14.1,3.4c21.7-10.8,43.4-21.6,65-32.6c3-1.5,5.2-1.6,8.3-0.1c21.3,10.8,42.7,21.5,64.1,32.1c2.2,1.1,4.7,2.2,7,2.2
		c4.1,0,7.1-2.3,8.6-6.4c1.4-4,0.1-7.2-2.8-9.9c-1.2-1.1-2.8-1.8-4.2-2.6c-23.1-11.6-46.3-23.2-69.5-34.7
		C1562.4-353.7,1559.8-354.5,1557.4-355.4z"/>
</g>
</svg>
